<?xml version="1.0" encoding="UTF-8"?><svg id="Calque_1" xmlns="http://www.w3.org/2000/svg" viewBox="0 0 1373.3 331.6"><defs><style>.cls-1{fill:#1f3729;}.cls-2{fill:#212121;}.cls-3{fill:#1f3529;opacity:.7;}.cls-4{fill:#25a84c;}</style></defs><g><path class="cls-4" d="M176.2,328.94C80.83,328.94,3.24,251.34,3.24,155.97c0-6.9,5.6-12.5,12.5-12.5s12.5,5.6,12.5,12.5c0,81.59,66.38,147.97,147.97,147.97,6.9,0,12.5,5.6,12.5,12.5s-5.6,12.5-12.5,12.5Z"/><path class="cls-1" d="M241.59,276.99h-64.56c-67.16,0-121.61-54.45-121.61-121.61V53.04c0-15.34,6.28-30.11,19.78-38.75,.09-.06,.18-.13,.26-.19,7.02-4.99,14.25-9.05,17.93-11.16,1.37-.79,2.9,.25,2.9,1.3V155.37c0,44.58,36.14,80.73,80.73,80.73h63.92c11.04,0,20.58,8.49,21.06,19.52,.52,11.71-8.82,21.37-20.42,21.37Z"/><circle class="cls-3" cx="176.2" cy="155.97" r="35.53"/></g><g><path class="cls-1" d="M349.55,188.38V52.23h15.17v121.37h65.35v14.78h-80.52Z"/><path class="cls-1" d="M468,188.38V67.01h-38.9v-14.79h94.52v14.79h-40.45v121.36h-15.17Z"/><path class="cls-1" d="M603.76,190.32c-9.99,0-19.26-1.75-27.81-5.25-8.56-3.5-16.08-8.37-22.57-14.59-6.48-6.23-11.5-13.58-15.07-22.08-3.57-8.49-5.35-17.73-5.35-27.72s1.78-19.22,5.35-27.72c3.57-8.49,8.49-15.85,14.78-22.08,6.29-6.22,13.68-11.05,22.18-14.49,8.49-3.43,17.6-5.16,27.33-5.16,6.87,0,13.65,.97,20.33,2.92,6.67,1.94,12.74,4.67,18.18,8.17,5.45,3.5,9.85,7.45,13.23,11.86l-10.11,10.31c-3.63-3.76-7.72-7-12.25-9.72-4.54-2.72-9.3-4.86-14.3-6.42-4.99-1.56-9.95-2.33-14.88-2.33-7.65,0-14.75,1.36-21.3,4.08-6.55,2.72-12.28,6.51-17.21,11.38-4.93,4.86-8.75,10.63-11.47,17.31-2.72,6.68-4.08,13.97-4.08,21.88s1.39,14.81,4.18,21.5c2.79,6.67,6.74,12.51,11.86,17.5,5.12,4.99,11.05,8.85,17.79,11.57,6.74,2.72,14.01,4.08,21.79,4.08,6.09,0,11.83-.91,17.21-2.72,5.38-1.82,10.08-4.38,14.1-7.69,4.02-3.31,7.13-7.16,9.34-11.57,2.2-4.4,3.31-9.14,3.31-14.2v-6.8l3.11,3.89h-47.85v-14.98h59.91c.13,1.04,.26,2.24,.39,3.6,.13,1.36,.23,2.72,.29,4.08s.1,2.62,.1,3.79c0,8.43-1.56,16.18-4.67,23.25-3.11,7.07-7.42,13.16-12.94,18.28-5.52,5.12-11.9,9.08-19.16,11.86-7.26,2.79-15.17,4.18-23.72,4.18Z"/><path class="cls-1" d="M802.92,190.32c-9.72,0-18.67-1.72-26.84-5.16-8.16-3.43-15.23-8.29-21.2-14.58-5.96-6.29-10.6-13.72-13.91-22.27-3.31-8.55-4.96-17.89-4.96-28.01s1.65-19.16,4.96-27.52c3.31-8.37,8.01-15.69,14.1-21.98,6.1-6.29,13.16-11.12,21.2-14.49,8.04-3.37,16.85-5.06,26.45-5.06,6.35,0,12.64,1.01,18.86,3.01,6.22,2.01,11.96,4.77,17.21,8.27,5.25,3.5,9.56,7.52,12.94,12.06l-10.5,10.89c-3.24-3.89-6.97-7.26-11.18-10.11-4.22-2.85-8.66-5.06-13.33-6.61-4.67-1.56-9.33-2.34-14-2.34-7.27,0-14.04,1.33-20.33,3.99-6.29,2.66-11.71,6.38-16.24,11.18-4.54,4.79-8.07,10.5-10.6,17.11-2.53,6.61-3.79,13.81-3.79,21.59s1.27,15.43,3.79,22.18c2.53,6.74,6.16,12.55,10.89,17.4,4.73,4.86,10.31,8.62,16.72,11.28,6.42,2.66,13.58,3.99,21.5,3.99,4.67,0,9.33-.68,14.01-2.04,4.67-1.36,8.94-3.27,12.84-5.74,3.89-2.46,7.19-5.25,9.92-8.36l7.78,12.64c-2.99,3.64-6.97,6.84-11.96,9.63-4.99,2.79-10.47,4.99-16.44,6.61-5.96,1.62-11.93,2.43-17.89,2.43Z"/><path class="cls-1" d="M917.09,190.32c-10.11,0-19.09-2.26-26.94-6.81-7.85-4.53-14.01-10.82-18.48-18.86-4.47-8.04-6.71-17.18-6.71-27.42s2.24-19.12,6.71-27.03c4.47-7.91,10.63-14.13,18.48-18.67,7.84-4.53,16.82-6.81,26.94-6.81s18.9,2.28,26.74,6.81c7.84,4.54,14.01,10.76,18.48,18.67,4.47,7.91,6.71,16.92,6.71,27.03s-2.24,19.39-6.71,27.42c-4.47,8.04-10.64,14.33-18.48,18.86-7.84,4.54-16.76,6.81-26.74,6.81Zm0-13.81c7.13,0,13.49-1.72,19.06-5.16,5.57-3.43,9.92-8.1,13.03-14,3.11-5.9,4.67-12.61,4.67-20.13s-1.56-14.2-4.67-20.03c-3.11-5.83-7.45-10.4-13.03-13.71-5.57-3.31-11.93-4.96-19.06-4.96s-13.52,1.65-19.16,4.96c-5.64,3.31-10.05,7.91-13.23,13.81-3.18,5.9-4.7,12.55-4.57,19.94-.13,7.52,1.4,14.23,4.57,20.13,3.18,5.9,7.59,10.57,13.23,14,5.64,3.44,12.02,5.16,19.16,5.16Z"/><path class="cls-1" d="M990.22,188.38V86.85h14.39l.59,21.2-2.33,.98c1.29-4.41,3.82-8.43,7.58-12.06,3.76-3.63,8.27-6.58,13.52-8.85,5.25-2.26,10.67-3.4,16.24-3.4,7.52,0,13.81,1.5,18.87,4.47,5.06,2.99,8.88,7.59,11.47,13.81,2.59,6.23,3.89,14.13,3.89,23.73v61.66h-14.78v-60.88c0-6.74-.88-12.28-2.62-16.63-1.75-4.34-4.45-7.55-8.08-9.62-3.63-2.08-8.1-3.05-13.42-2.92-4.41,0-8.5,.75-12.25,2.24-3.76,1.49-7,3.53-9.72,6.12-2.72,2.6-4.86,5.58-6.42,8.95-1.55,3.37-2.33,7-2.33,10.89v61.85h-14.59Z"/><path class="cls-1" d="M1135.51,190.32c-8.69,0-16.47-1.62-23.34-4.86-6.88-3.24-12.32-7.52-16.34-12.84l10.31-8.95c3.76,4.54,8.2,7.97,13.32,10.31,5.12,2.33,10.86,3.5,17.21,3.5,3.24,0,6.16-.35,8.75-1.07,2.6-.71,4.86-1.78,6.81-3.21,1.95-1.43,3.43-3.11,4.47-5.06,1.04-1.94,1.55-4.08,1.55-6.42,0-4.28-1.88-7.84-5.64-10.7-1.69-1.16-4.08-2.36-7.2-3.6-3.11-1.23-6.87-2.43-11.28-3.6-7.26-2.08-13.3-4.18-18.09-6.33-4.79-2.14-8.55-4.63-11.28-7.49-1.95-2.33-3.4-4.86-4.38-7.58-.97-2.72-1.45-5.7-1.45-8.95,0-4.15,.87-7.97,2.62-11.47,1.75-3.5,4.21-6.58,7.39-9.23,3.18-2.66,6.94-4.67,11.28-6.03,4.34-1.36,9.04-2.04,14.1-2.04,4.79,0,9.53,.65,14.2,1.95,4.67,1.3,9.01,3.18,13.03,5.64,4.02,2.47,7.45,5.38,10.31,8.75l-8.94,9.72c-2.47-2.59-5.19-4.92-8.17-7-2.99-2.07-6.13-3.7-9.43-4.86-3.31-1.16-6.71-1.75-10.21-1.75-3.11,0-6,.38-8.66,1.16-2.66,.78-4.93,1.85-6.8,3.21-1.89,1.36-3.31,3.01-4.28,4.96-.97,1.94-1.45,4.08-1.45,6.42,0,1.94,.38,3.7,1.16,5.25,.78,1.55,1.88,2.92,3.31,4.08,1.82,1.43,4.38,2.76,7.69,3.99,3.31,1.23,7.42,2.5,12.35,3.79,5.7,1.56,10.53,3.15,14.49,4.77,3.96,1.62,7.23,3.54,9.82,5.74,3.5,2.6,6,5.58,7.49,8.95,1.49,3.37,2.24,7.2,2.24,11.47,0,5.71-1.59,10.76-4.77,15.17-3.18,4.41-7.56,7.88-13.13,10.4-5.57,2.53-11.93,3.79-19.06,3.79Z"/><path class="cls-1" d="M1240.15,190.32c-10.11,0-19.1-2.2-26.94-6.61-7.84-4.4-13.97-10.57-18.38-18.48-4.41-7.91-6.62-16.99-6.62-27.23,0-7.91,1.23-15.08,3.7-21.5,2.46-6.42,5.94-12.02,10.41-16.82,4.47-4.79,9.82-8.52,16.04-11.18,6.23-2.65,12.96-3.99,20.23-3.99,6.87,0,13.13,1.23,18.77,3.7,5.64,2.47,10.5,5.87,14.59,10.21,4.08,4.35,7.16,9.5,9.24,15.46,2.07,5.96,2.98,12.52,2.72,19.64l-.19,6.81h-84.61l-2.14-12.25h75.66l-3.5,3.31v-4.67c-.26-4.67-1.62-9.17-4.08-13.52-2.46-4.34-5.93-7.88-10.4-10.6-4.47-2.72-9.82-4.08-16.05-4.08-7.26,0-13.55,1.45-18.86,4.38-5.32,2.92-9.4,7.23-12.25,12.93-2.85,5.71-4.28,12.78-4.28,21.2s1.55,15.01,4.67,20.91c3.11,5.9,7.55,10.47,13.33,13.71,5.77,3.25,12.74,4.86,20.91,4.86,4.79,0,9.56-.81,14.3-2.43,4.73-1.62,9.95-4.83,15.66-9.62l7.58,10.5c-2.99,2.99-6.55,5.61-10.7,7.87-4.15,2.28-8.69,4.08-13.62,5.45-4.93,1.36-9.99,2.04-15.17,2.04Z"/><path class="cls-1" d="M1315.8,64.87c-3.63,0-6.39-.94-8.26-2.82-1.89-1.87-2.82-4.44-2.82-7.68s.97-5.84,2.92-7.78c1.95-1.94,4.67-2.92,8.17-2.92s6.23,.94,8.17,2.82c1.94,1.89,2.92,4.51,2.92,7.88,0,3.11-.97,5.64-2.92,7.59-1.94,1.94-4.67,2.92-8.17,2.92Zm-7.19,123.51V86.85h14.58v101.53h-14.58Z"/><path class="cls-1" d="M1355.48,188.38V44.45h14.59V188.38h-14.59Z"/></g><g><path class="cls-2" d="M350.35,276.13v-37.67h4.38v33.7h16.62v3.97h-21Z"/><path class="cls-2" d="M410.44,257.24c0,6.03-1.52,10.77-4.57,14.23-3.05,3.45-7.29,5.18-12.71,5.18s-9.83-1.7-12.84-5.09c-3.01-3.39-4.52-8.18-4.52-14.37s1.51-10.88,4.53-14.26c3.02-3.37,7.31-5.06,12.88-5.06s9.64,1.72,12.67,5.16c3.04,3.43,4.56,8.18,4.56,14.22Zm-30.01,0c0,5.1,1.08,8.97,3.26,11.61,2.17,2.64,5.33,3.96,9.47,3.96s7.33-1.32,9.46-3.95c2.13-2.62,3.19-6.5,3.19-11.62s-1.06-8.91-3.18-11.53c-2.12-2.62-5.26-3.93-9.41-3.93s-7.35,1.32-9.52,3.96c-2.18,2.64-3.26,6.47-3.26,11.5Z"/><path class="cls-2" d="M435.4,256.39h12.81v18.32c-1.99,.64-4.02,1.12-6.08,1.44-2.06,.33-4.45,.49-7.16,.49-5.7,0-10.14-1.7-13.32-5.09-3.18-3.39-4.77-8.15-4.77-14.26,0-3.92,.79-7.35,2.36-10.29,1.57-2.94,3.83-5.2,6.78-6.75,2.96-1.55,6.42-2.33,10.39-2.33s7.76,.74,11.24,2.22l-1.7,3.86c-3.4-1.44-6.67-2.16-9.82-2.16-4.59,0-8.16,1.37-10.74,4.1-2.58,2.73-3.86,6.52-3.86,11.36,0,5.09,1.24,8.94,3.72,11.57,2.48,2.63,6.13,3.95,10.94,3.95,2.61,0,5.16-.3,7.65-.9v-11.6h-8.43v-3.92Z"/><path class="cls-2" d="M457.25,276.13v-37.67h4.38v37.67h-4.38Z"/><path class="cls-2" d="M488.09,241.83c-4.14,0-7.41,1.38-9.8,4.14-2.4,2.76-3.6,6.53-3.6,11.32s1.16,8.74,3.47,11.43c2.31,2.69,5.6,4.03,9.88,4.03,2.63,0,5.63-.47,9-1.42v3.84c-2.61,.98-5.84,1.47-9.67,1.47-5.55,0-9.83-1.69-12.84-5.05-3.01-3.37-4.52-8.15-4.52-14.36,0-3.88,.72-7.28,2.18-10.2,1.45-2.92,3.54-5.17,6.28-6.75,2.74-1.58,5.96-2.37,9.68-2.37,3.95,0,7.4,.72,10.36,2.16l-1.86,3.76c-2.85-1.34-5.7-2.01-8.55-2.01Z"/><path class="cls-2" d="M505.25,276.13v-37.67h4.38v37.67h-4.38Z"/><path class="cls-2" d="M540.97,276.13h-21v-37.67h21v3.89h-16.62v12.13h15.61v3.87h-15.61v13.86h16.62v3.92Z"/><path class="cls-2" d="M549.32,276.13v-37.67h4.38v33.7h16.62v3.97h-21Z"/><path class="cls-2" d="M597.96,266.1c0,3.32-1.2,5.91-3.61,7.76-2.4,1.86-5.67,2.79-9.79,2.79-4.47,0-7.9-.58-10.31-1.73v-4.22c1.55,.65,3.23,1.16,5.05,1.54,1.82,.38,3.63,.57,5.41,.57,2.92,0,5.12-.55,6.6-1.66,1.48-1.11,2.22-2.65,2.22-4.63,0-1.3-.26-2.37-.79-3.21-.52-.83-1.4-1.6-2.62-2.3-1.23-.7-3.1-1.51-5.6-2.4-3.5-1.26-6.01-2.74-7.51-4.46-1.5-1.72-2.25-3.96-2.25-6.73,0-2.9,1.09-5.21,3.27-6.93,2.18-1.72,5.07-2.58,8.66-2.58s7.19,.69,10.33,2.06l-1.36,3.82c-3.11-1.31-6.13-1.96-9.07-1.96-2.32,0-4.13,.5-5.43,1.5-1.31,1-1.96,2.38-1.96,4.15,0,1.3,.24,2.37,.72,3.21,.48,.84,1.29,1.6,2.44,2.29,1.14,.7,2.89,1.47,5.24,2.31,3.95,1.41,6.67,2.92,8.15,4.53,1.48,1.62,2.23,3.71,2.23,6.28Z"/><path class="cls-2" d="M619.17,236.04h3.64v52.87h-3.64v-52.87Z"/><path class="cls-2" d="M658.25,276.13h-4.38v-33.78h-11.93v-3.89h28.24v3.89h-11.93v33.78Z"/><path class="cls-2" d="M680.22,260.46v15.66h-4.38v-37.67h10.33c4.62,0,8.03,.88,10.24,2.65,2.21,1.77,3.31,4.43,3.31,7.99,0,4.98-2.53,8.35-7.58,10.1l10.23,16.93h-5.18l-9.12-15.66h-7.86Zm0-3.76h6.01c3.09,0,5.36-.61,6.8-1.84,1.44-1.23,2.16-3.07,2.16-5.53s-.73-4.29-2.2-5.39c-1.47-1.1-3.83-1.65-7.08-1.65h-5.69v14.4Z"/><path class="cls-2" d="M732.14,276.13l-4.68-11.98h-15.1l-4.64,11.98h-4.43l14.89-37.82h3.69l14.81,37.82h-4.54Zm-6.05-15.93l-4.38-11.67c-.56-1.48-1.15-3.29-1.75-5.44-.38,1.65-.92,3.46-1.62,5.44l-4.43,11.67h12.19Z"/><path class="cls-2" d="M771.28,276.13h-5l-20.59-31.61h-.21c.28,3.71,.41,7.11,.41,10.2v21.41h-4.04v-37.67h4.95l20.53,31.49h.21c-.03-.46-.11-1.96-.23-4.47-.12-2.51-.16-4.32-.13-5.4v-21.62h4.1v37.67Z"/><path class="cls-2" d="M802.9,266.1c0,3.32-1.2,5.91-3.61,7.76-2.4,1.86-5.67,2.79-9.79,2.79-4.47,0-7.9-.58-10.31-1.73v-4.22c1.55,.65,3.23,1.16,5.05,1.54,1.82,.38,3.63,.57,5.41,.57,2.92,0,5.12-.55,6.6-1.66,1.48-1.11,2.22-2.65,2.22-4.63,0-1.3-.26-2.37-.79-3.21-.52-.83-1.4-1.6-2.62-2.3-1.23-.7-3.1-1.51-5.6-2.4-3.5-1.26-6.01-2.74-7.51-4.46-1.5-1.72-2.25-3.96-2.25-6.73,0-2.9,1.09-5.21,3.27-6.93,2.18-1.72,5.07-2.58,8.66-2.58s7.19,.69,10.33,2.06l-1.36,3.82c-3.11-1.31-6.13-1.96-9.07-1.96-2.32,0-4.13,.5-5.43,1.5-1.31,1-1.96,2.38-1.96,4.15,0,1.3,.24,2.37,.72,3.21,.48,.84,1.29,1.6,2.44,2.29,1.14,.7,2.89,1.47,5.24,2.31,3.95,1.41,6.67,2.92,8.15,4.53,1.48,1.62,2.23,3.71,2.23,6.28Z"/><path class="cls-2" d="M814.98,276.13h-4.38v-37.67h21v3.89h-16.62v13.78h15.61v3.89h-15.61v16.11Z"/><path class="cls-2" d="M870.53,257.24c0,6.03-1.52,10.77-4.57,14.23-3.05,3.45-7.29,5.18-12.71,5.18s-9.83-1.7-12.84-5.09c-3.01-3.39-4.52-8.18-4.52-14.37s1.51-10.88,4.53-14.26c3.02-3.37,7.31-5.06,12.88-5.06s9.64,1.72,12.67,5.16c3.04,3.43,4.56,8.18,4.56,14.22Zm-30.01,0c0,5.1,1.08,8.97,3.26,11.61,2.17,2.64,5.33,3.96,9.47,3.96s7.33-1.32,9.46-3.95c2.13-2.62,3.19-6.5,3.19-11.62s-1.06-8.91-3.18-11.53c-2.12-2.62-5.26-3.93-9.41-3.93s-7.35,1.32-9.52,3.96c-2.18,2.64-3.26,6.47-3.26,11.5Z"/><path class="cls-2" d="M883.31,260.46v15.66h-4.38v-37.67h10.33c4.62,0,8.03,.88,10.24,2.65,2.21,1.77,3.31,4.43,3.31,7.99,0,4.98-2.53,8.35-7.58,10.1l10.23,16.93h-5.18l-9.12-15.66h-7.86Zm0-3.76h6.01c3.09,0,5.36-.61,6.8-1.84,1.44-1.23,2.16-3.07,2.16-5.53s-.73-4.29-2.2-5.39c-1.47-1.1-3.83-1.65-7.08-1.65h-5.69v14.4Z"/><path class="cls-2" d="M928.22,276.13l-12.78-33.39h-.21c.24,2.65,.36,5.79,.36,9.43v23.96h-4.04v-37.67h6.6l11.93,31.07h.2l12.03-31.07h6.55v37.67h-4.38v-24.27c0-2.78,.12-5.81,.36-9.07h-.2l-12.88,33.34h-3.53Z"/><path class="cls-2" d="M982.87,276.13l-4.68-11.98h-15.1l-4.64,11.98h-4.43l14.89-37.82h3.69l14.81,37.82h-4.54Zm-6.05-15.93l-4.38-11.67c-.56-1.48-1.15-3.29-1.75-5.44-.38,1.65-.92,3.46-1.62,5.44l-4.43,11.67h12.19Z"/><path class="cls-2" d="M1004.18,276.13h-4.38v-33.78h-11.93v-3.89h28.24v3.89h-11.93v33.78Z"/><path class="cls-2" d="M1021.78,276.13v-37.67h4.38v37.67h-4.38Z"/><path class="cls-2" d="M1069.19,257.24c0,6.03-1.52,10.77-4.57,14.23-3.05,3.45-7.29,5.18-12.71,5.18s-9.83-1.7-12.84-5.09c-3.01-3.39-4.52-8.18-4.52-14.37s1.51-10.88,4.53-14.26c3.02-3.37,7.31-5.06,12.88-5.06s9.64,1.72,12.67,5.16c3.04,3.43,4.56,8.18,4.56,14.22Zm-30.01,0c0,5.1,1.08,8.97,3.26,11.61,2.17,2.64,5.33,3.96,9.47,3.96s7.33-1.32,9.46-3.95c2.13-2.62,3.19-6.5,3.19-11.62s-1.06-8.91-3.18-11.53c-2.12-2.62-5.26-3.93-9.41-3.93s-7.35,1.32-9.52,3.96c-2.18,2.64-3.26,6.47-3.26,11.5Z"/><path class="cls-2" d="M1107.02,276.13h-5l-20.59-31.61h-.21c.28,3.71,.41,7.11,.41,10.2v21.41h-4.04v-37.67h4.95l20.53,31.49h.21c-.03-.46-.11-1.96-.23-4.47-.12-2.51-.16-4.32-.13-5.4v-21.62h4.1v37.67Z"/><path class="cls-2" d="M1130.88,236.04h3.64v52.87h-3.64v-52.87Z"/><path class="cls-2" d="M1174.92,256.39h12.81v18.32c-1.99,.64-4.02,1.12-6.08,1.44s-4.45,.49-7.16,.49c-5.7,0-10.14-1.7-13.32-5.09-3.18-3.39-4.77-8.15-4.77-14.26,0-3.92,.79-7.35,2.36-10.29,1.57-2.94,3.83-5.2,6.78-6.75,2.96-1.55,6.42-2.33,10.39-2.33s7.76,.74,11.24,2.22l-1.7,3.86c-3.4-1.44-6.67-2.16-9.82-2.16-4.59,0-8.16,1.37-10.74,4.1-2.58,2.73-3.86,6.52-3.86,11.36,0,5.09,1.24,8.94,3.72,11.57,2.48,2.63,6.13,3.95,10.94,3.95,2.61,0,5.16-.3,7.65-.9v-11.6h-8.43v-3.92Z"/><path class="cls-2" d="M1217.77,276.13h-21v-37.67h21v3.89h-16.62v12.13h15.61v3.87h-15.61v13.86h16.62v3.92Z"/><path class="cls-2" d="M1247.38,266.1c0,3.32-1.2,5.91-3.61,7.76-2.4,1.86-5.67,2.79-9.79,2.79-4.47,0-7.9-.58-10.31-1.73v-4.22c1.55,.65,3.23,1.16,5.05,1.54,1.82,.38,3.63,.57,5.41,.57,2.92,0,5.12-.55,6.6-1.66,1.48-1.11,2.22-2.65,2.22-4.63,0-1.3-.26-2.37-.79-3.21-.52-.83-1.4-1.6-2.62-2.3-1.23-.7-3.1-1.51-5.6-2.4-3.5-1.26-6.01-2.74-7.51-4.46-1.5-1.72-2.25-3.96-2.25-6.73,0-2.9,1.09-5.21,3.27-6.93,2.18-1.72,5.07-2.58,8.66-2.58s7.19,.69,10.33,2.06l-1.36,3.82c-3.11-1.31-6.13-1.96-9.07-1.96-2.32,0-4.13,.5-5.43,1.5-1.31,1-1.96,2.38-1.96,4.15,0,1.3,.24,2.37,.72,3.21,.48,.84,1.29,1.6,2.44,2.29,1.14,.7,2.89,1.47,5.24,2.31,3.95,1.41,6.67,2.92,8.15,4.53,1.48,1.62,2.23,3.71,2.23,6.28Z"/><path class="cls-2" d="M1266.68,276.13h-4.38v-33.78h-11.93v-3.89h28.24v3.89h-11.93v33.78Z"/><path class="cls-2" d="M1284.28,276.13v-37.67h4.38v37.67h-4.38Z"/><path class="cls-2" d="M1331.68,257.24c0,6.03-1.52,10.77-4.57,14.23-3.05,3.45-7.29,5.18-12.71,5.18s-9.83-1.7-12.84-5.09c-3.01-3.39-4.52-8.18-4.52-14.37s1.51-10.88,4.53-14.26c3.02-3.37,7.31-5.06,12.88-5.06s9.64,1.72,12.67,5.16c3.04,3.43,4.56,8.18,4.56,14.22Zm-30.01,0c0,5.1,1.08,8.97,3.26,11.61,2.17,2.64,5.33,3.96,9.47,3.96s7.33-1.32,9.46-3.95c2.13-2.62,3.19-6.5,3.19-11.62s-1.06-8.91-3.18-11.53c-2.12-2.62-5.26-3.93-9.41-3.93s-7.35,1.32-9.52,3.96c-2.18,2.64-3.26,6.47-3.26,11.5Z"/><path class="cls-2" d="M1369.51,276.13h-5l-20.59-31.61h-.21c.28,3.71,.41,7.11,.41,10.2v21.41h-4.04v-37.67h4.95l20.53,31.49h.21c-.03-.46-.11-1.96-.23-4.47-.12-2.51-.16-4.32-.13-5.4v-21.62h4.1v37.67Z"/></g></svg>